<svg xmlns="http://www.w3.org/2000/svg" viewBox="0 0 360.69 398.14">
  <title>brain</title>
  <style>path {fill: #3C1212}</style>
  <g>
    <path d="M109.64,306.14C99.26,315.62,87.14,321.28,73,318c-5-1.15-8.65-4-12.43-7.43-2.75-2.47-6.2-5.2-8.32-8.28-14-20.25-11.61-49.22-1.42-70.7A103.92,103.92,0,0,1,57.23,220c0.67-1,1.37-2.07,2.08-3.09,0.89-1.29,1.25-1.67-.09,0,2.19-2.79,2.85-5.83,1.17-9.09-9.51-18.41-14.5-40.64-4-59.17a46.55,46.55,0,0,1,11.15-13.46c0.48-.42,3.27-2.59,1.28-1.11,0.68-.51,1.36-1,2.07-1.49s1.22-.82,1.86-1.18c2.07-1.17,4-4,3.71-6.48-1.82-14.16,1.21-30,9.24-41.79C94.17,70.75,109.67,66,122.59,70.73c3.94,1.45,8-1.65,9.23-5.24,0.15-.46.33-0.92,0.51-1.37-0.26.65-.63,1.3,0.06-0.1,0.36-.74.7-1.49,1.08-2.23a43.46,43.46,0,0,1,7-10.07c8.07-8.62,21.19-14.18,32.25-8,9,5,13.39,13.82,15.25,23.25,0.16,0.82.3,1.64,0.43,2.46,0,0.1-.07-1.21,0,0.52,0.05,0.83.13,1.66,0.16,2.5,0,0.36.06,0.71,0.07,1.07,0.28,26.17.07,52.35,0.07,78.52V284c0,27.31-.21,54.63-0.07,81.94,0.06,10.09-.16,17.49-4.06,27-3.16,7.73-9.51,14.44-19.13,15.61-12.84,1.55-23.24-5-29.21-16a52.93,52.93,0,0,1-4.51-11.65,7.6,7.6,0,0,0-9.23-5.24,41.88,41.88,0,0,1-5,1c-1.66.3,1.62-.15,0.31,0-0.41,0-.82.1-1.23,0.13-1.06.08-2.11,0.16-3.17,0.19a53.82,53.82,0,0,1-7.06-.28c-0.4,0,1.24.23-.28,0-0.68-.13-1.36-0.24-2-0.38q-2-.42-3.87-1a22.27,22.27,0,0,1-7-3.19,38.18,38.18,0,0,1-13-14.13c-6-10.8-8.2-23.5-9.12-35.69-0.72-9.57-15.73-9.64-15,0,1.67,22.12,7.27,46.35,26,60.33,10,7.44,22.9,10.38,35.19,9.14a48.27,48.27,0,0,0,9.26-1.61l-9.23-5.24c3.18,11.4,8.77,22.59,18.23,30A42.86,42.86,0,0,0,179.13,420c18.59-8.67,24.72-31.65,24.54-50.56-0.22-22.18,0-44.37,0-66.55v-139q0-44.88-.07-89.77c0-13.76-5.13-28.36-15.5-37.73-5.71-5.15-13.84-9.93-21.67-10.51s-16.05,1.6-23,5c-10.07,4.9-18.21,13.93-23.2,23.86a50.69,50.69,0,0,0-2.9,6.75l9.22-5.24c-18.18-6.69-39.17.55-50.86,15.39C64.36,86.07,59.16,106.74,61.5,125l3.71-6.48c-9.44,5.33-17.54,14.63-22.54,24.1-12.46,23.57-7,50.15,4.77,72.84l1.17-9.09a102.34,102.34,0,0,0-21,56.36,82.82,82.82,0,0,0,2.47,24.84c2.16,8.45,5.75,18.38,11.38,25.16,6.61,8,16,16.71,26.14,19.41,19.94,5.3,37.84-1.86,52.64-15.37,7.14-6.52-3.49-17.11-10.61-10.61h0Z" transform="translate(-27.49 -25.65)"/>
    <path d="M125.47,140.12c-5.76-15.37-17.9-24.45-34.24-25.69A59.55,59.55,0,0,0,67,117.75c-9,3.29-5.11,17.79,4,14.46,13.81-5.06,33.56-5.3,40,11.9,3.36,9,17.86,5.08,14.46-4h0Z" transform="translate(-27.49 -25.65)"/>
    <path d="M152.68,108.76c12.76,0.15,24,5.37,30.38,16a34.08,34.08,0,0,1,4.51,10.56c0.38,1.35.66,2.7,1,4.07,0.4,1.87.17,1.16,0-.13,0.45,4,3.13,7.5,7.5,7.5,3.71,0,7.95-3.45,7.5-7.5a54.55,54.55,0,0,0-8.4-23.46c-9.57-14.68-25.18-21.79-42.47-22-9.66-.11-9.66,14.89,0,15h0Z" transform="translate(-27.49 -25.65)"/>
    <path d="M92.56,280.19a61.45,61.45,0,0,1,18.83-50.7c12.1-11.58,29.47-18.74,46.31-15.65,9.44,1.73,13.48-12.72,4-14.46-46.58-8.55-88.41,35.07-84.14,80.81,0.89,9.53,15.9,9.62,15,0h0Z" transform="translate(-27.49 -25.65)"/>
    <path d="M88.15,165.32c-4.27,15.63-3.06,31.94,7.67,44.66a42.72,42.72,0,0,0,18.1,12.55c9.13,3.18,13.06-11.3,4-14.46a3.24,3.24,0,1,0,.36.18c-1-.5-2-0.94-2.95-1.48a37.38,37.38,0,0,1-4.2-2.72c1,0.79-.86-0.75-1.19-1q-1.28-1.15-2.45-2.41c-7.49-8.12-7.89-20.24-4.88-31.27,2.55-9.32-11.92-13.3-14.46-4h0Z" transform="translate(-27.49 -25.65)"/>
    <path d="M128.25,389.39c9.74-4.54,18.11-12.84,23.88-21.74,5.27-8.12-7.71-15.65-13-7.57a45.65,45.65,0,0,1-18.5,16.36c-3.67,1.71-4.6,7-2.69,10.26,2.2,3.76,6.58,4.41,10.26,2.69h0Z" transform="translate(-27.49 -25.65)"/>
    <path d="M202.79,329.92c-0.88-22.22-11.95-47-33.16-56.41-10.92-4.82-22.5-5.16-34.18-3.57-4,.55-6.23,5.7-5.24,9.23,1.21,4.33,5.18,5.79,9.23,5.24,18.78-2.56,33.77,5,41.83,20.93a47.76,47.76,0,0,1,3.46,8.75,80.34,80.34,0,0,1,2.16,8.72c0.23,1.22.41,2.44,0.61,3.66,0.25,1.54-.18-1.71-0.05-0.36,0,0.46.11,0.92,0.15,1.38,0.07,0.81.16,1.62,0.19,2.44,0.38,9.62,15.38,9.67,15,0h0Z" transform="translate(-27.49 -25.65)"/>
  </g>
  <g>
    <path d="M295.42,316.75c13.29,12.13,28.89,19.34,47.09,16.51,12.71-2,22.47-10.29,30.86-19.64,4.89-5.45,7.94-13.07,10.35-19.9a81.06,81.06,0,0,0,4.44-24.6c0.4-14.63-3.21-29-9.06-42.27a95.38,95.38,0,0,0-12-20.5l1.17,9.09C380,192.75,385.46,166.17,373,142.6c-5-9.46-13.1-18.77-22.54-24.1l3.71,6.48c2.34-18.24-2.86-38.91-14.22-53.32-11.7-14.84-32.68-22.08-50.86-15.39l9.23,5.24a56.86,56.86,0,0,0-11.54-19.37c-9.18-10.39-25.33-18.69-39.54-16-21.53,4.14-34.81,25.67-35.34,46.4-0.74,28.66-.22,57.42-0.22,86.09V268.4c0,32.94.63,65.91,0.22,98.84-0.18,14.55,2.28,30.16,11.38,42,8.58,11.14,22.25,15.83,36.06,14.18,14.81-1.77,26.7-11,33.49-24.11a75.58,75.58,0,0,0,5.59-14.39l-9.22,5.24c23.29,7.15,48.44-4.37,59.75-25.46,7-13,9.6-27.81,10.7-42.4,0.73-9.63-14.28-9.58-15,0-0.82,10.87-2.6,22.19-7.29,32.14-3.07,6.52-7.92,13-12.76,16.32a42,42,0,0,1-3.91,2.39c-0.6.32-1.21,0.62-1.82,0.91a2.47,2.47,0,0,1-.94.4,51.84,51.84,0,0,1-8,2.19c-0.77.15-1.63,0.21-.29,0.06-0.65.07-1.29,0.15-1.94,0.19-1.23.08-2.45,0.14-3.68,0.15-2,0-3.94-.18-5.92-0.32-1.65-.12,1.66.3,0.11,0-0.39-.07-0.78-0.11-1.16-0.19l-2-.4c-0.6-.13-1.21-0.28-1.8-0.46a7.6,7.6,0,0,0-9.23,5.24c-2.44,8.77-6.51,18.25-14.78,23.58-9.33,6-23.5,6-31.42-1.56-9.47-9-11-23-10.87-35.44,0.33-28.73-.22-57.48-0.22-86.2v-196c0-4.29.09-8.61,0.22-12.9,0-.74.2-1.48,0.24-2.23s0.3-2,.07-0.45c0.15-1,.35-2.06.56-3.07a38.65,38.65,0,0,1,4.41-12.17,28.29,28.29,0,0,1,11.31-11c6.12-3.27,12.36-2.86,18.79-.54,9.23,3.33,15.66,10.69,19.91,18.92,0.43,0.83,2,4.57,1.08,2.17,0.2,0.5.4,1,.57,1.52,1.19,3.6,5.26,6.7,9.23,5.24,12.95-4.76,28.4,0,36.85,12.46C338,95,341,110.84,339.17,125c-0.32,2.5,1.65,5.31,3.71,6.48,0.64,0.36,1.25.77,1.86,1.18s1.39,1,2.07,1.49c-1.77-1.32.48,0.41,1.08,0.93a47,47,0,0,1,11.35,13.64c10.54,18.53,5.55,40.77-4,59.17-1.7,3.3-1,6.31,1.17,9.09-2.51-3.21.78,1.2,1.35,2.06a100.1,100.1,0,0,1,5.32,9.09,88.94,88.94,0,0,1,9.54,29.76,69,69,0,0,1-7.49,41c-3.65,6.81-11.42,14.85-18.87,18.08-14.37,6.23-29.63-1.12-40.27-10.83-7.12-6.5-17.75,4.08-10.61,10.61h0Z" transform="translate(-27.49 -25.65)"/>
    <path d="M304.67,144.11c6.44-17.2,26.2-16.95,40-11.9,9.08,3.32,13-11.17,4-14.46a59.65,59.65,0,0,0-24.22-3.32c-16.34,1.22-28.48,10.34-34.24,25.69-3.39,9.05,11.1,13,14.46,4h0Z" transform="translate(-27.49 -25.65)"/>
    <path d="M329.74,278.43c4.86-18.57,4-40.4-11.26-54.06C301,208.81,275.61,209.31,254,213c-9.49,1.63-5.47,16.09,4,14.46,15.93-2.74,37-3.89,49.91,7.49,11.14,9.79,11,25.61,7.41,39.46-2.45,9.35,12,13.33,14.46,4h0Z" transform="translate(-27.49 -25.65)"/>
    <path d="M313.81,184.1c5.9,8.47,6,16.93-.28,25.19a50.83,50.83,0,0,1-7.26,7.32c-0.51.44-1.5,1.18-.4,0.35-0.49.37-1,.72-1.48,1.08s-0.74.51-1.13,0.75c-8.16,5.11-.64,18.1,7.57,13a55.93,55.93,0,0,0,16.75-16.47c8-12.21,7.47-26.83-.82-38.74-5.48-7.87-18.49-.38-13,7.57h0Z" transform="translate(-27.49 -25.65)"/>
    <path d="M295,376.44a45.65,45.65,0,0,1-18.5-16.36c-5.23-8.07-18.22-.56-13,7.57,5.77,8.91,14.14,17.2,23.88,21.74,3.67,1.71,8.08,1,10.26-2.69,1.9-3.25,1-8.54-2.69-10.26h0Z" transform="translate(-27.49 -25.65)"/>
    <path d="M227.88,348.92c0-.67.09-1.33,0.14-2s0.44-3.4.06-.86c0.15-1,.3-2,0.49-3a70.3,70.3,0,0,1,4.76-15.64c7.47-15.94,21-25.18,38.35-27.92,4-.63,6.24-5.64,5.24-9.23-1.19-4.26-5.19-5.87-9.23-5.24-20.37,3.21-37.89,15.37-46.95,34-4.44,9.16-7.56,19.59-7.86,29.84-0.28,9.66,14.72,9.65,15,0h0Z" transform="translate(-27.49 -25.65)"/>
    <path d="M254,115c-22.53,5.07-41.54,23.47-41.91,47.28-0.15,9.66,14.85,9.66,15,0,0.18-11.36,6.25-20.41,15.61-26.27,5.47-3.42,9-5.13,15.29-6.55,9.41-2.12,5.43-16.58-4-14.46h0Z" transform="translate(-27.49 -25.65)"/>
  </g>
</svg>
