<?xml version="1.0" encoding="utf-8"?>
<!-- Generator: Adobe Illustrator 19.2.0, SVG Export Plug-In . SVG Version: 6.00 Build 0)  -->
<svg version="1.1" id="Слой_1" xmlns="http://www.w3.org/2000/svg" xmlns:xlink="http://www.w3.org/1999/xlink" x="0px" y="0px"
	 viewBox="0 0 1000 1000" style="enable-background:new 0 0 1000 1000;" xml:space="preserve">
<g>
	<g>
		<path d="M500,505.8c-66,0-122.4-23.3-169-70c-46.7-46.7-70-102.9-70-168.6c0-66,23.3-122.4,70-169C377.6,51.4,434,28.1,500,28.1
			s122.4,23.3,169,70c46.7,46.7,70,103.1,70,169c0,65.7-23.3,121.8-70,168.6C622.4,482.5,566,505.8,500,505.8z M500,149.2
			c-32.3,0-60,11.5-82.9,34.5c-23,23-34.6,50.9-34.6,83.5c0,32.3,11.5,60,34.5,82.9c23,22.9,50.7,34.5,82.9,34.5s60-11.5,82.9-34.5
			c22.9-23,34.5-50.7,34.5-82.9c0-32.7-11.5-60.5-34.5-83.5C560,160.7,532.3,149.2,500,149.2z M775.5,534.8
			c4.5,9.4,7.2,18.2,7.9,26.1c0.7,7.9-0.1,15-2.4,21.3c-2.3,6.4-6.9,13.1-14,20.3s-14.4,13.7-22.3,19.5
			c-7.9,5.8-18.7,13.1-32.4,21.9c-40.4,25.6-95.6,42.2-166,49.5l38.4,37.9l140.6,140.6c10.5,10.9,15.8,23.9,15.8,39
			c0,15.1-5.3,27.9-15.8,38.4l-6.4,6.8c-10.8,10.5-23.8,15.8-38.9,15.8c-15.1,0-28.1-5.3-39-15.8c-23.5-23.9-70.4-70.9-140.6-141.2
			L359.9,956.2c-10.9,10.5-23.9,15.8-39,15.8s-27.9-5.3-38.4-15.8l-6.4-6.8c-10.9-10.5-16.4-23.3-16.4-38.4c0-15.1,5.5-28.1,16.4-39
			l178.7-178.6c-71.3-7.4-126.9-23.9-167-49.5c-13.7-8.8-24.5-16.1-32.4-21.9c-7.9-5.8-15.4-12.3-22.3-19.5c-7-7.2-11.7-14-14-20.3
			c-2.3-6.4-3.1-13.4-2.4-21.3c0.7-7.9,3.4-16.6,7.9-26.1c3.5-7,8.5-13.2,14.7-18.4c6.4-5.3,13.7-9.1,22.2-11.6
			c8.5-2.5,18.3-2.1,29.5,1.1c11.3,3.2,22.6,9.3,34.2,18.4c1.7,1.4,4.4,3.4,7.9,5.8c3.5,2.5,11.1,6.7,22.6,12.9
			c11.6,6.2,23.7,11.5,36.3,16.1c12.6,4.6,28.8,8.8,48.4,12.6c19.6,3.9,39.5,5.8,59.5,5.8c32,0,62.5-4.4,91.7-13.4
			c29.2-9,50.2-17.8,63.2-26.6l20-13.2c11.6-9.2,23-15.3,34.2-18.4c11.3-3.2,21.1-3.5,29.5-1.1c8.4,2.4,15.8,6.4,22.2,11.6
			S772,527.7,775.5,534.8L775.5,534.8z"/>
	</g>
</g>
</svg>
