<?xml version="1.0" encoding="utf-8"?>
<!-- Generator: Adobe Illustrator 19.2.0, SVG Export Plug-In . SVG Version: 6.00 Build 0)  -->
<svg version="1.1" id="Слой_1" xmlns="http://www.w3.org/2000/svg" xmlns:xlink="http://www.w3.org/1999/xlink" x="0px" y="0px"
	 viewBox="0 0 378.7 378.7" style="enable-background:new 0 0 378.7 378.7;" xml:space="preserve">
<path d="M185.5,300.1h21.2c0,0,6.4-0.7,9.7-4.2c3-3.2,2.9-9.3,2.9-9.3s-0.4-28.5,12.8-32.7c13-4.1,29.8,27.5,47.5,39.7
	c13.4,9.2,23.6,7.2,23.6,7.2l47.4-0.7c0,0,24.8-1.5,13-21c-1-1.6-6.9-14.4-35.2-40.8c-29.7-27.6-25.7-23.1,10.1-70.9
	c21.8-29.1,30.5-46.8,27.8-54.4c-2.6-7.2-18.6-5.3-18.6-5.3l-53.4,0.3c0,0-4-0.5-6.9,1.2c-2.9,1.7-4.7,5.7-4.7,5.7
	s-8.5,22.5-19.7,41.6c-23.8,40.4-33.3,42.5-37.2,40c-9-5.8-6.8-23.5-6.8-36c0-39.1,5.9-55.4-11.5-59.6c-5.8-1.4-10.1-2.3-24.9-2.5
	c-19-0.2-35.2,0.1-44.3,4.5c-6.1,3-10.8,9.6-7.9,10c3.5,0.5,11.5,2.2,15.8,7.9c5.5,7.4,5.3,24.2,5.3,24.2s3.1,46-7.3,51.8
	c-7.2,3.9-17.1-4.1-38.3-40.7c-10.9-18.8-19.1-39.5-19.1-39.5s-1.6-3.9-4.4-5.9c-3.4-2.5-8.2-3.3-8.2-3.3l-50.7,0.3
	c0,0-7.6,0.2-10.4,3.5c-2.5,2.9-0.2,9-0.2,9S52.5,213.2,97.5,260C138.7,302.9,185.5,300.1,185.5,300.1"/>
</svg>
