<svg xmlns="http://www.w3.org/2000/svg" viewBox="0 0 147.4 4.44">
  <style>path {fill: #3C1212}</style>
  <path d="M93,0a14,14,0,0,1-4.15,2h-3.4c-0.17-1.12-1.57-2-3.29-2s-3.13.88-3.3,2H75.51L73.7,0.19,71.89,2H68.55C68.39,0.88,67,0,65.26,0s-3.13.88-3.3,2h-3.4a14,14,0,0,1-4.15-2S25.15,1.82,0,2.16V2.28C25.15,2.63,54.41,4.41,54.41,4.41a12.46,12.46,0,0,1,4.07-2H62c0.17,1.12,1.57,2,3.3,2s3.13-.88,3.3-2h3.34L73.7,4.25l1.81-1.81h3.34c0.17,1.12,1.57,2,3.3,2s3.13-.88,3.29-2h3.48a12.44,12.44,0,0,1,4.07,2s29.27-1.79,54.42-2.13V2.16C122.26,1.82,93,0,93,0Z"/>
</svg>
